<?xml version="1.0" encoding="UTF-8"?>
<svg id="Layer_1" data-name="Layer 1" xmlns="http://www.w3.org/2000/svg" viewBox="0 0 459.86 459.33">
  <defs>
    <style>
      .cls-1 {
        fill: #f59a00;
      }

      .cls-2 {
        fill: #113e28;
      }
    </style>
  </defs>
  <path class="cls-2" d="M48.28.45c119.35-.57,243.57-.66,362.95.1,10.49,0,20.85,5.98,29.13,12.65,8.21,6.62,13.57,15.48,16.56,25.33l2.94,13.74c-.25,118.59-.49,237.28-.71,356.08,0,7.54-2.43,14.6-6.2,21.56-1.22,2.25-1.77,4.7-4,6.52-8.87,12.86-23.05,20.52-38.75,22.89H47.91c-23.87-3.71-41.71-20.69-47.02-43.91l-.48-6.31C-.06,290.98-.31,167.99.68,49.88.69,24.48,23.87,2.97,48.28.45Z"/>
  <path class="cls-1" d="M209.38,359.8h-94.03c-.42-1.17-.42-2.9,0-3.71l10.33-4.02c5.78-2.25,9.45-7.79,9.46-14.77l.06-204.21c0-18-18.2-17.31-19.71-20.03-.55-.98-.7-2.46-.04-3.8l93.89.02c.83,1.11.64,3.64-.23,4l-9.77,4.07c-4.61,1.92-8.95,6.74-8.95,12.93l-.07,208.67c0,5.69,3.52,10.43,7.95,12.37l8.95,3.92c.74.32,1.68.34,2,.7.54.61.97,1.87.15,3.85Z"/>
  <path class="cls-1" d="M350.94,359.78l-95.45.03c-.44-1.41-.38-2.61.02-3.81,3.75-1.18,7.98-1.69,10.8-4.93,2.76-3.17,2.26-8.74-.48-12.65l-75.22-107.24,11.86-12.06,37.42-38.19,37.8-38.56,12.03-12.75c2.37-2.51,3.93-7.08,1.91-10.02-3.24-4.73-12.08-5.22-12.71-6.56-.46-.99-.51-2.25-.05-3.78l54.83.04c.8.98.69,3.68-.2,3.99l-16.8,5.86c-4.22,1.47-7.71,4.59-10.93,7.82l-23.55,23.63-33.69,34.42-16.97,17.42,84.5,123.24c5.52,8.04,10.41,15.87,17.42,22.41,4.76,4.44,11.5,5.92,17.38,7.98.4.52.64,1.99.07,3.68Z"/>
</svg>