<svg xmlns="http://www.w3.org/2000/svg" width="1094" height="958" viewBox="0 0 1094 958">
<g>
<path d="M 755.89 742.47 C746.52,744.67 324.74,744.62 315.60,742.41 C298.65,738.30 281.63,724.71 273.76,708.98 C272.84,707.13 272.04,705.82 271.35,704.45 C266.97,695.76 266.97,684.86 267.00,520.61 C267.00,506.47 267.00,491.20 267.00,474.68 C267.00,456.95 267.00,440.64 266.99,425.62 C266.96,264.34 266.96,253.21 271.54,244.51 C272.31,243.05 273.20,241.66 274.25,239.65 C281.32,226.04 294.33,214.74 309.35,209.16 L 316.50 206.50 L 533.43 206.24 C550.14,206.22 565.60,206.20 579.90,206.18 C745.51,205.95 756.51,205.94 765.37,210.27 C766.77,210.95 768.11,211.74 770.00,212.65 C775.80,215.46 779.43,218.24 786.01,224.89 C795.60,234.58 799.77,241.85 803.02,254.57 C804.96,262.18 805.00,266.18 804.98,474.41 C804.98,486.32 804.98,497.59 804.98,508.25 C804.98,683.06 804.98,693.92 800.88,702.91 C800.36,704.06 799.77,705.17 799.11,706.58 C790.86,724.21 774.02,738.19 755.89,742.47 ZM 401.67 627.33 C402.03,627.70 427.01,628.00 457.17,628.00 L 512.00 628.00 L 512.00 625.56 C512.00,623.49 510.68,622.46 503.30,618.81 C495.72,615.06 494.30,613.93 492.30,610.09 L 490.00 605.69 L 490.00 541.63 C490.00,486.97 490.20,477.79 491.39,479.04 C492.15,479.84 497.19,486.80 502.58,494.50 C507.98,502.20 515.08,512.33 518.37,517.00 C521.66,521.67 528.91,532.03 534.49,540.00 C540.06,547.97 548.42,559.86 553.06,566.42 C580.31,604.92 580.28,604.88 580.41,610.52 C580.52,615.97 577.64,619.29 570.86,621.55 C566.82,622.89 566.00,623.57 566.00,625.59 L 566.00 628.02 L 622.25 627.76 C678.20,627.50 678.50,627.49 678.79,625.44 C679.04,623.70 677.80,622.89 670.75,620.21 C658.59,615.59 654.06,611.27 640.18,591.00 C636.98,586.33 629.70,575.75 624.01,567.50 C618.31,559.25 610.47,547.78 606.59,542.00 C602.70,536.22 599.26,531.28 598.95,531.00 C598.64,530.72 593.05,522.62 586.52,513.00 C580.00,503.38 572.18,491.90 569.15,487.50 C566.12,483.10 561.42,476.12 558.71,472.00 C556.00,467.88 552.92,463.38 551.88,462.00 C550.83,460.62 547.44,455.80 544.35,451.28 C538.99,443.42 538.80,442.95 540.30,440.78 C541.16,439.52 561.81,418.40 586.18,393.83 C613.78,366.02 632.20,348.21 635.00,346.66 C637.47,345.28 643.33,342.94 648.00,341.46 C657.23,338.54 659.60,337.01 658.67,334.58 C658.13,333.19 654.24,333.00 625.53,333.00 L 593.00 333.00 L 593.00 335.38 C593.00,337.15 593.84,338.07 596.25,338.97 C604.33,342.00 607.19,343.48 608.06,345.11 C609.78,348.32 609.05,352.64 606.10,356.71 C604.50,358.91 590.44,373.72 574.84,389.61 C559.25,405.50 533.78,431.50 518.25,447.38 L 490.00 476.26 L 490.01 416.88 C490.01,379.12 490.39,356.15 491.04,353.78 C492.64,348.02 496.30,344.49 503.75,341.52 C511.95,338.24 512.94,337.48 512.28,334.96 C511.78,333.04 510.58,333.00 456.38,333.00 L 401.00 333.00 L 401.00 335.41 C401.00,337.48 402.01,338.21 408.11,340.54 C416.53,343.76 421.38,347.71 423.19,352.80 C424.24,355.78 424.50,380.59 424.50,479.50 C424.50,547.15 424.14,604.20 423.70,606.27 C422.67,611.13 418.19,616.20 413.05,618.33 C410.82,619.25 407.20,620.74 405.00,621.65 C401.28,623.19 399.89,625.56 401.67,627.33 Z" fill="rgb(17,61,40)"/>
<path d="M 401.67 627.33 C399.89,625.56 401.28,623.19 405.00,621.65 C407.20,620.74 410.82,619.25 413.05,618.33 C418.19,616.20 422.67,611.13 423.70,606.27 C424.14,604.20 424.50,547.15 424.50,479.50 C424.50,380.59 424.24,355.78 423.19,352.80 C421.38,347.71 416.53,343.76 408.11,340.54 C402.01,338.21 401.00,337.48 401.00,335.41 L 401.00 333.00 L 456.38 333.00 C510.58,333.00 511.78,333.04 512.28,334.96 C512.94,337.48 511.95,338.24 503.75,341.52 C496.30,344.49 492.64,348.02 491.04,353.78 C490.39,356.15 490.01,379.12 490.01,416.88 L 490.00 476.26 L 518.25 447.38 C533.78,431.50 559.25,405.50 574.84,389.61 C590.44,373.72 604.50,358.91 606.10,356.71 C609.05,352.64 609.78,348.32 608.06,345.11 C607.19,343.48 604.33,342.00 596.25,338.97 C593.84,338.07 593.00,337.15 593.00,335.38 L 593.00 333.00 L 625.53 333.00 C654.24,333.00 658.13,333.19 658.67,334.58 C659.60,337.01 657.23,338.54 648.00,341.46 C643.33,342.94 637.47,345.28 635.00,346.66 C632.20,348.21 613.78,366.02 586.18,393.83 C561.81,418.40 541.16,439.52 540.30,440.78 C538.80,442.95 538.99,443.42 544.35,451.28 C547.44,455.80 550.83,460.62 551.88,462.00 C552.92,463.38 556.00,467.88 558.71,472.00 C561.42,476.12 566.12,483.10 569.15,487.50 C572.18,491.90 580.00,503.38 586.52,513.00 C593.05,522.62 598.64,530.72 598.95,531.00 C599.26,531.28 602.70,536.22 606.59,542.00 C610.47,547.78 618.31,559.25 624.01,567.50 C629.70,575.75 636.98,586.33 640.18,591.00 C654.06,611.27 658.59,615.59 670.75,620.21 C677.80,622.89 679.04,623.70 678.79,625.44 C678.50,627.49 678.20,627.50 622.25,627.76 L 566.00 628.02 L 566.00 625.59 C566.00,623.57 566.82,622.89 570.86,621.55 C577.64,619.29 580.52,615.97 580.41,610.52 C580.28,604.88 580.31,604.92 553.06,566.42 C548.42,559.86 540.06,547.97 534.49,540.00 C528.91,532.03 521.66,521.67 518.37,517.00 C515.08,512.33 507.98,502.20 502.58,494.50 C497.19,486.80 492.15,479.84 491.39,479.04 C490.20,477.79 490.00,486.97 490.00,541.63 L 490.00 605.69 L 492.30 610.09 C494.30,613.93 495.72,615.06 503.30,618.81 C510.68,622.46 512.00,623.49 512.00,625.56 L 512.00 628.00 L 457.17 628.00 C427.01,628.00 402.03,627.70 401.67,627.33 Z" fill="rgb(244,154,4)"/>
<path d="M 0.00 479.00 L 0.00 0.00 L 547.00 0.00 L 1094.00 0.00 L 1094.00 479.00 L 1094.00 958.00 L 547.00 958.00 L 0.00 958.00 L 0.00 479.00 ZM 755.89 742.47 C774.02,738.19 790.86,724.21 799.11,706.58 C805.30,693.35 804.96,706.59 804.98,474.41 C805.00,266.18 804.96,262.18 803.02,254.57 C799.77,241.85 795.60,234.58 786.01,224.89 C779.43,218.24 775.80,215.46 770.00,212.65 C755.10,205.43 774.06,205.95 533.43,206.24 L 316.50 206.50 L 309.35 209.16 C294.33,214.74 281.32,226.04 274.25,239.65 C266.38,254.81 267.00,234.58 267.00,474.68 C267.00,713.11 266.46,694.39 273.76,708.98 C281.63,724.71 298.65,738.30 315.60,742.41 C324.74,744.62 746.52,744.67 755.89,742.47 Z" fill="rgb(254,254,254)"/>
</g>
</svg>