<?xml version="1.0" encoding="UTF-8"?>
<svg id="Layer_1" data-name="Layer 1" xmlns="http://www.w3.org/2000/svg" viewBox="0 0 459.87 459.33">
  <defs>
    <style>
      .cls-1 {
        fill: #f59a00;
      }

      .cls-2 {
        fill: #113e28;
      }
    </style>
  </defs>
  <path class="cls-2" d="M48.28.45c119.35-.57,243.58-.66,362.96.1,10.49,0,20.85,5.98,29.13,12.65,8.21,6.62,13.57,15.48,16.56,25.33l2.94,13.74c-.25,118.59-.49,237.29-.71,356.09,0,7.54-2.43,14.6-6.2,21.56-1.22,2.25-1.77,4.7-4,6.52-8.87,12.86-23.05,20.52-38.75,22.89H47.91c-23.87-3.71-41.71-20.69-47.02-43.91l-.48-6.31C-.06,290.99-.31,167.99.68,49.88.69,24.48,23.87,2.97,48.28.45Z"/>
  <path class="cls-1" d="M211.54,354.73h-94.94c-.42-1.18-.42-2.93,0-3.75l10.43-4.06c5.84-2.27,9.54-7.87,9.55-14.91l.06-206.19c0-18.17-18.38-17.48-19.9-20.22-.56-.99-.71-2.48-.04-3.84l94.8.02c.84,1.12.65,3.68-.23,4.04l-9.86,4.11c-4.65,1.94-9.04,6.81-9.04,13.06l-.07,210.7c0,5.75,3.55,10.53,8.03,12.49l9.04,3.96c.75.32,1.7.34,2.02.71.55.62.98,1.89.15,3.89h.01Z"/>
  <path class="cls-1" d="M354.47,354.71l-96.38.03c-.44-1.42-.38-2.64.02-3.85,3.79-1.19,8.06-1.71,10.9-4.98,2.79-3.2,2.28-8.82-.48-12.77l-75.95-108.28,11.98-12.18,37.78-38.56,38.17-38.93,12.15-12.87c2.39-2.53,3.97-7.15,1.93-10.12-3.27-4.78-12.2-5.27-12.83-6.62-.46-1-.51-2.27-.05-3.82l55.36.04c.81.99.7,3.72-.2,4.03l-16.96,5.92c-4.26,1.48-7.78,4.63-11.04,7.9l-23.78,23.86-34.02,34.75-17.13,17.59,85.32,124.44c5.57,8.12,10.51,16.02,17.59,22.63,4.81,4.48,11.61,5.98,17.55,8.06.4.53.65,2.01.07,3.72v.03Z"/>
</svg>