<?xml version="1.0" encoding="UTF-8"?>
<svg id="Layer_1" data-name="Layer 1" xmlns="http://www.w3.org/2000/svg" viewBox="0 0 459.86 459.32">
  <defs>
    <style>
      .cls-1 {
        fill: #f59a00;
      }

      .cls-2 {
        fill: #113e28;
      }
    </style>
  </defs>
  <path class="cls-2" d="M48.28.45c119.35-.57,243.57-.66,362.95.1,10.49,0,20.85,5.98,29.13,12.65,8.21,6.62,13.57,15.48,16.56,25.33l2.94,13.74c-.25,118.59-.49,237.28-.71,356.08,0,7.54-2.43,14.6-6.2,21.56-1.22,2.25-1.77,4.7-4,6.52-8.87,12.86-23.05,20.52-38.75,22.89H47.91c-23.87-3.71-41.71-20.69-47.02-43.91l-.48-6.31C-.06,290.98-.31,167.99.68,49.88.69,24.48,23.87,2.97,48.28.45Z"/>
  <path class="cls-1" d="M207.48,409.6H72.36c-.6-1.68-.6-4.17,0-5.33l14.84-5.78c8.31-3.23,13.58-11.19,13.59-21.23l.09-293.46c0-25.87-26.15-24.88-28.32-28.78-.79-1.41-1.01-3.54-.06-5.46l134.93.03c1.19,1.6.92,5.23-.33,5.75l-14.04,5.85c-6.62,2.76-12.86,9.69-12.86,18.58l-.1,299.87c0,8.18,5.06,14.99,11.42,17.78l12.86,5.63c1.06.46,2.41.49,2.87,1.01.78.88,1.39,2.69.22,5.53h.01Z"/>
  <path class="cls-1" d="M410.91,409.57l-137.17.04c-.63-2.03-.55-3.75.03-5.48,5.39-1.7,11.47-2.43,15.52-7.08,3.97-4.56,3.25-12.56-.69-18.18l-108.1-154.11,17.04-17.33,53.78-54.88,54.32-55.41,17.29-18.32c3.41-3.61,5.65-10.17,2.74-14.4-4.66-6.8-17.36-7.5-18.27-9.43-.66-1.42-.73-3.23-.07-5.43l78.79.06c1.15,1.41.99,5.29-.29,5.73l-24.14,8.42c-6.06,2.11-11.08,6.6-15.71,11.24l-33.84,33.96-48.41,49.46-24.39,25.03,121.43,177.1c7.93,11.55,14.96,22.81,25.03,32.2,6.84,6.38,16.53,8.51,24.98,11.47.57.75.92,2.86.1,5.29v.04Z"/>
</svg>